<svg width="193" height="193" viewBox="0 0 193 193" fill="none" xmlns="http://www.w3.org/2000/svg">
<path d="M28.2197 130.53C29.295 120.478 30.4416 110.787 35.0698 101.93C38.7397 94.9071 42.1887 87.7607 46.0961 80.8723C49.5242 74.829 54.9274 70.7142 60.9874 67.4238C62.7685 66.4566 64.4976 65.3756 66.1504 64.206C66.6564 63.8479 66.828 63.0202 67.1526 62.4076C66.4771 62.1091 65.6776 61.4159 65.1485 61.5814C63.0414 62.2413 60.8739 62.9255 58.9891 64.0387C49.981 69.3574 43.1245 76.9158 38.6255 86.1751C34.1722 95.3408 30.2137 104.831 27.0768 114.514C25.2579 120.128 24.8952 126.406 24.9418 132.377C25.001 139.944 29.1585 145.821 35.5949 149.584C42.287 153.496 49.7811 155.569 57.5243 154.332C66.2942 152.931 75.4877 151.935 83.4755 148.441C94.3338 143.691 105.084 137.995 113.484 129.161C119.463 122.873 123.612 115.406 126.944 107.407C131.917 95.4663 137.445 83.7851 145.026 73.2055C145.746 72.2 146.637 71.068 147.709 70.6311C148.775 70.197 150.505 70.0853 151.355 70.6752C153.631 72.2549 155.647 74.229 157.654 76.1616C158.705 77.1728 159.635 77.5744 159.756 75.777C160.552 64.0127 165.207 53.2022 167.972 41.9283C168.246 40.8104 167.815 39.5208 167.712 38.3108C166.704 38.6111 165.596 38.7351 164.703 39.2393C157.668 43.2149 150.615 47.1657 143.691 51.3282C140.027 53.5303 139.767 55.4368 141.989 59.3619C142.62 60.4758 143.298 61.572 144.047 62.6093C146.257 65.6698 145.144 67.7245 143.015 70.6788C138.3 77.2209 134.147 84.2376 130.437 91.406C127.157 97.7429 124.934 104.615 121.945 111.115C120.662 113.905 118.699 116.404 116.913 118.942C111.282 126.945 104.249 133.456 95.5558 138.014C88.9193 141.494 82.5821 145.729 75.0023 147.075C69.7754 148.003 64.4643 148.539 59.3046 149.738C54.1742 150.93 49.2094 150.477 44.41 148.889C40.7286 147.67 36.6485 146.328 33.9634 143.77C30.5392 140.508 27.6383 136.264 28.2197 130.53ZM147.463 61.8535C146.778 60.8875 145.878 60.0045 145.459 58.9343C144.883 57.4637 142.82 55.8232 145.439 54.3103C150.766 51.2338 156.091 48.1534 161.454 45.1413C162.115 44.7698 163.008 44.8059 163.793 44.653C163.631 45.3488 163.507 46.0565 163.299 46.7381C161.034 54.1635 157.918 61.3772 157.676 69.314C157.67 69.4962 156.561 69.9136 156.157 69.751C155.574 69.5161 155.244 68.7076 154.668 68.3946C152.682 67.315 150.574 66.3999 152.162 63.4677C152.218 63.3647 150.884 62.2833 150.079 62.0191C149.413 61.8008 148.57 62.1163 147.463 61.8535Z" fill="#AEFD00"/>
</svg>
