<svg width="282" height="362" viewBox="0 0 282 362" fill="none" xmlns="http://www.w3.org/2000/svg">
<path d="M104.276 189.217C105.299 198.88 101.486 207.337 96.526 214.989C88.9172 226.727 80.8021 238.108 71.9622 249.082C65.8902 256.619 60.1579 264.411 53.2392 271.246C52.6467 271.832 51.739 272.101 50.9771 272.517C50.7906 271.52 50.5337 270.529 50.4415 269.523C50.3792 268.847 50.3066 267.978 50.6537 267.485C55.9312 259.982 61.4547 252.647 66.5695 245.036C76.3449 230.488 86.5283 216.154 95.2943 201.012C100.215 192.512 100.533 185.311 89.5504 177.767C87.6096 176.434 85.3345 175.491 83.6391 173.913C76.6052 167.369 68.8581 169.636 61.732 172.778C51.3025 177.376 40.679 182.514 32.9882 190.94C26.2431 198.329 21.9832 207.916 15.802 215.897C11.2716 221.747 5.44573 226.611 0.0740275 231.786C-0.41813 232.26 -2.14407 232.181 -2.68775 231.689C-3.2999 231.136 -3.668 229.646 -3.36158 228.871C-2.26609 226.105 -1.21941 223.189 0.528221 220.834C7.47198 211.474 15.396 202.759 21.5846 192.944C28.1324 182.558 37.1194 175.211 47.6438 170.164C55.0126 166.629 61.6594 161.078 70.8565 161.043C78.586 161.015 84.5143 164.373 90.816 167.687C96.3979 170.621 99.3318 169.729 99.8213 164.048C101.616 143.218 114.294 127.906 126.509 112.854C132.528 105.437 142.378 101.208 150.04 94.9803C153.456 92.2029 156.332 89.3225 161.087 90.3882C162.302 90.6607 163.43 91.3114 164.598 91.788C164.006 92.9764 163.731 94.6393 162.771 95.2731C157.451 98.7874 151.891 101.94 146.55 105.425C136.218 112.171 127.398 120.493 120.728 130.94C120.026 132.038 120.012 133.714 119.129 134.538C110.758 142.353 109.77 153.604 105.494 163.314C104.961 164.523 104.456 165.816 104.311 167.111C103.283 176.306 104.65 179.133 113.519 182.144C120.209 184.409 127.117 185.967 134.131 186.793C136.561 187.078 139.487 184.373 141.978 182.72C159.436 171.129 176.69 159.222 194.411 148.051C197.206 146.289 202.258 147.009 205.796 148.099C206.998 148.47 208.121 154.407 206.91 156.255C203.314 161.743 199.257 167.44 194.054 171.256C186.293 176.95 177.459 181.22 168.913 185.783C167.733 186.414 165.406 185.6 163.941 184.829C162.18 183.901 160.773 182.005 158.674 184.919C152.968 182.584 152.2 182.554 150.066 185.501C148.3 187.94 147.115 190.847 145.132 193.067C142.772 195.71 141.167 198.404 135.718 196.38C126.047 192.787 115.522 191.48 104.815 188.68C103.611 188.09 102.945 188.037 102.279 187.985L104.276 189.217ZM177.525 168.8C176.089 169.912 174.408 170.828 173.297 172.202C172.477 173.217 172.4 174.829 171.991 176.175C173.206 175.778 174.393 175.186 175.639 175.014C187.089 173.432 192.517 163.737 200.058 156.928C200.792 156.265 200.596 154.578 200.832 153.367C199.366 153.656 197.589 153.514 196.486 154.307C190.434 158.653 184.546 163.229 177.525 168.8ZM24.5639 131.191C20.1996 138.775 16.0407 145.043 7.52078 147.475C2.71716 148.846 -0.106974 146.463 -1.83563 144.098C-3.46191 141.873 -7.60526 139.398 -3.9961 134.609C-0.0852833 129.42 2.01961 122.914 5.2993 117.203C7.74043 112.952 16.305 110.474 19.8491 112.519C24.7687 115.357 26.8878 122.374 24.5978 127.998C24.349 128.608 24.5639 129.406 24.5639 131.191ZM14.8693 133.34C15.6061 131.889 16.4413 130.476 17.0284 128.968C17.2534 128.389 16.9097 127.591 16.825 126.893C14.6821 127.664 11.9407 127.875 10.549 129.351C8.87592 131.127 8.35122 133.979 7.32894 136.366C8.02854 136.45 8.82914 136.793 9.40874 136.569C10.9218 135.983 12.3373 135.149 14.8693 133.34ZM186.141 217.156C194.271 221.577 196.275 225.542 194.759 232.077C193.325 238.256 186.553 244.524 180.637 245.079C179.225 245.211 177.253 244.553 176.463 245.271C172.697 248.696 167.061 248.516 165.21 245.955C163.41 243.465 165.53 238.135 165.994 234.06C166.066 233.432 166.593 232.867 166.737 232.234C170.173 217.157 170.169 217.156 186.141 217.156ZM180.755 221.454C177.655 220.871 175.188 221.822 173.424 224.47C175.611 224.897 177.789 225.388 179.99 225.724C181.038 225.885 182.197 225.974 183.185 225.686C184.044 225.435 184.734 224.609 185.499 224.037C184.276 223.534 183.055 223.031 180.755 221.454ZM178.601 230.05L175.877 230.618C176.004 231.082 176.21 231.957 176.245 231.95C177.4 231.727 178.538 231.42 178.601 230.05Z" fill="#AEFD00"/>
<path d="M157.596 184.919C158.135 185.271 158.034 185.894 158.149 185.937C160.271 186.726 162.419 187.445 164.56 188.18C163.56 189.178 162.638 190.916 161.546 191.031C158.497 191.349 155.377 190.994 152.286 190.905C152.626 190.156 152.82 189.281 153.338 188.685C154.492 187.356 155.808 186.166 157.596 184.919Z" fill="#AEFD00"/>
</svg>
