<svg width="217" height="333" viewBox="0 0 217 333" fill="none" xmlns="http://www.w3.org/2000/svg">
<path d="M181.305 211.656C186.583 217.463 186.428 231.54 198.809 222.984C198.903 222.918 201.553 225.793 201.32 226.133C198.33 230.493 192.905 233.619 194.747 240.255C192.44 240.187 188.887 241.042 188.038 239.893C184.004 234.438 180.83 228.355 177.065 222.685C176.006 221.09 173.979 220.138 172.396 218.89C172.005 220.408 171.448 221.905 171.248 223.448C170.073 232.5 169.097 241.58 167.755 250.606C167.503 252.304 166.186 254.188 164.79 255.206C164.209 255.63 161.614 254.373 160.84 253.253C157.91 249.015 155.041 246.53 157.972 238.953C163.612 224.375 171.997 208.647 161.351 191.903C157.422 185.724 155.703 182.104 148.546 188.645C133.702 202.215 118.069 214.917 102.805 228.029C100.688 229.849 99.0768 232.374 96.7574 233.798C95.3477 234.663 93.0277 234.042 91.1161 234.088C91.1354 232.572 90.5439 230.605 91.2743 229.612C95.4181 223.981 99.4535 218.167 104.312 213.183C117.891 199.251 131.202 184.941 149.824 177.215C151.984 176.319 152.748 172.05 154.158 169.345C151.127 169.185 147.336 167.773 145.193 169.076C133.723 176.05 121.187 174.541 108.84 174.518C107.224 174.515 105.611 172.741 103.997 171.788C105.275 170.499 106.354 168.436 107.865 168.045C117.508 165.556 127.366 163.855 136.919 161.085C148.968 157.591 148.616 157.424 141.405 146.369C133.965 134.965 127.002 123.244 120.062 111.523C118.92 109.595 118.971 106.959 118.471 104.65C120.778 105.403 123.824 105.477 125.254 107.037C129.593 111.768 133.793 116.772 137.157 122.22C143.456 132.419 148.994 143.086 155.206 153.342C156.159 154.916 160.219 156.585 160.777 156.051C162.528 154.374 164.818 151.102 164.206 149.443C157.424 131.074 162.584 112.157 161.421 93.5685C161.155 89.3331 163.98 84.5972 166.316 80.6446C167.397 78.8152 170.721 78.3133 173.028 77.21C172.878 79.5188 172.717 81.8276 172.58 84.137C172.122 91.792 171.403 99.4432 171.281 107.104C171.067 120.545 171.109 133.994 171.327 147.435C171.366 149.789 172.795 152.121 173.581 154.463C175.426 153.511 177.73 152.978 179.042 151.539C187.89 141.835 196.579 131.982 205.159 122.038C206.086 120.964 205.986 119.004 206.362 117.456C204.862 117.886 203.016 117.918 201.943 118.844C200.375 120.198 199.596 122.457 198.045 123.842C196.499 125.224 194.415 126.003 192.567 127.046C192.176 124.409 190.531 120.901 191.638 119.304C194.463 115.228 198.032 111.228 202.195 108.628C207.851 105.097 214.268 102.727 220.51 100.24C222.192 99.5696 224.423 100.278 226.402 100.354C226.125 101.939 226.319 103.84 225.499 105.058C218.108 116.032 210.458 126.83 203.119 137.838C202.162 139.274 202.537 141.599 202.295 143.511C204.206 143.292 206.216 143.381 208.012 142.803C218.715 139.362 229.228 139.76 239.378 144.528C240.636 145.12 240.879 147.877 241.592 149.631C240.115 150.12 238.368 151.389 237.201 150.983C214.697 143.156 196.21 153.027 178.529 164.819C174.942 167.21 170.92 173.583 171.716 177.066C174.247 188.147 172.714 200.653 181.305 211.656Z" fill="#AEFD00"/>
</svg>
