<svg width="1440" height="823" viewBox="0 0 1440 823" fill="none" xmlns="http://www.w3.org/2000/svg">
<g opacity="0.4">
<path opacity="0.43" d="M667.405 229.822C818.272 186.561 960.775 168.109 1069.2 173.234C1123.42 175.798 1169.09 184.255 1203.01 198.433C1236.95 212.613 1259.06 232.48 1266.32 257.822C1273.59 283.164 1265.37 311.729 1244.1 341.736C1222.85 371.738 1188.6 403.11 1143.98 434.014C1054.74 495.819 924.117 555.685 773.249 598.946C622.382 642.207 479.879 660.659 371.452 655.533C317.236 652.97 271.568 644.513 237.641 630.335C203.708 616.154 181.597 596.288 174.33 570.946C167.064 545.604 175.287 517.039 196.55 487.032C217.808 457.029 252.055 425.657 296.674 394.753C385.91 332.949 516.537 273.082 667.405 229.822Z" stroke="#D9D9D9"/>
<path opacity="0.43" d="M687.25 299.032C781.844 271.908 871.179 260.318 939.136 263.494C973.117 265.082 1001.72 270.361 1022.97 279.216C1044.21 288.073 1058.01 300.471 1062.54 316.257C1067.06 332.042 1061.93 349.869 1048.61 368.639C1035.29 387.404 1013.82 407.04 985.847 426.394C929.899 465.1 847.997 502.611 753.403 529.735C658.81 556.859 569.475 568.449 501.518 565.273C467.537 563.685 438.929 558.406 417.689 549.552C396.442 540.695 382.644 528.296 378.118 512.511C373.591 496.725 378.722 478.899 392.047 460.128C405.368 441.364 426.831 421.727 454.807 402.373C510.755 363.668 592.657 326.157 687.25 299.032Z" stroke="#D9D9D9"/>
</g>
</svg>
