<svg width="496" height="533" viewBox="0 0 496 533" fill="none" xmlns="http://www.w3.org/2000/svg">
<path d="M329.301 365.767C322.281 358.582 315.888 351.454 309.226 344.586C308.125 343.45 305.493 342.557 304.189 343.085C299.59 344.947 294.484 343.982 289.905 346.946C285.215 349.982 279.366 351.228 274.023 353.253C273.329 353.516 272.588 353.681 271.933 354.017C262.331 358.935 252.843 364.091 243.099 368.706C238.933 370.678 234.273 371.67 229.762 372.808C228.487 373.13 226.945 372.395 225.526 372.145C225.916 370.571 225.936 368.767 226.753 367.46C234.318 355.354 240.363 342.587 244.355 328.85C248.111 315.924 252.048 303.051 255.841 290.135C257.155 285.659 258.003 281.029 259.572 276.652C260.681 273.559 260.011 271.234 258.349 268.701C256.485 265.861 254.786 262.895 253.231 259.873C249.014 251.675 244.127 243.708 240.952 235.115C236.602 223.343 231.426 212.094 224.898 201.422C224.488 200.752 223.842 200.089 223.774 199.378C223.636 197.926 223.492 196.304 224.031 195.043C224.242 194.548 226.481 194.387 227.45 194.83C236.901 199.15 246.544 203.154 255.595 208.21C263.387 212.561 270.092 218.912 277.99 223.005C286.11 227.214 293.863 232.512 303.024 234.508C304.935 234.924 306.963 234.993 308.922 234.905C309.726 234.869 310.969 234.16 311.207 233.477C317.071 216.639 323.939 200.227 331.362 184.017C336.87 171.988 341.772 159.683 346.986 147.519C347.559 146.181 348.234 144.794 349.209 143.758C349.761 143.171 351.669 142.815 351.861 143.1C353.528 145.571 356.1 148.151 356.237 150.81C356.935 164.383 356.684 178.001 358.163 191.544C359.123 200.341 356.927 208.849 355.844 217.464C355.163 222.882 354.278 228.337 354.318 233.769C354.368 240.587 357.019 242.648 363.885 244.071C367.808 244.884 371.503 246.785 375.311 248.165C379.611 249.722 383.944 251.186 388.224 252.794C394.834 255.276 401.368 257.963 408.018 260.33C411.459 261.554 415.053 262.394 418.63 263.166C420.134 263.491 422.64 261.995 422.689 264.683C422.732 266.978 422.059 269.635 420.781 271.499C419.712 273.057 417.382 273.871 415.476 274.704C412.522 275.995 409.237 276.647 406.472 278.232C397.88 283.16 388.974 287.213 379.503 290.207C374.481 291.796 369.863 294.622 364.949 296.61C361.47 298.017 360.316 300.943 360.389 303.983C360.599 312.622 360.809 321.146 359.227 329.78C357.436 339.56 356.886 349.564 355.692 359.458C354.97 365.434 353.727 371.367 353.383 377.357C353.253 379.621 355.159 381.946 355.813 384.332C356.188 385.695 355.91 387.236 355.926 388.697C354.778 388.416 353.614 388.183 352.486 387.837C351.671 387.586 350.831 386.79 350.126 386.919C347.342 387.428 347.22 385.975 346.132 383.777C344.615 380.714 340.969 378.766 338.496 376.099C335.469 372.834 332.712 369.318 329.301 365.767ZM250.894 334.41C247.35 342.329 245.126 350.84 240.058 358.094C239.359 359.095 239.901 360.964 239.868 362.432C240.862 361.669 241.833 360.875 242.855 360.153C243.903 359.415 244.922 358.552 246.089 358.081C252.556 355.473 259.137 353.14 265.54 350.388C275.047 346.303 284.372 341.788 293.916 337.796C296.995 336.508 300.507 336.219 303.844 335.598C307.482 334.921 309.8 336.315 312.058 339.494C315.755 344.702 320.136 349.473 324.574 354.097C330.984 360.775 337.714 367.145 344.283 373.672C346.574 375.949 348.07 375.777 348.651 372.704C350.012 365.511 351.191 358.285 352.186 351.032C353.641 340.39 355.257 329.745 356.048 319.045C356.547 312.308 355.791 305.46 355.355 298.677C355.092 294.589 356.394 290.853 360.358 290.554C363.523 290.315 365.441 288.279 368.055 287.711C374.993 286.205 380.626 281.776 387.434 279.729C394.909 277.482 401.729 273.044 408.801 269.494C409.371 269.207 409.684 268.406 410.116 267.844L408.599 267.437C407.083 267.031 405.486 266.808 404.061 266.19C390.04 260.106 375.927 254.311 360.876 251.187C357.28 250.441 353.086 250.447 350.289 248.497C346.458 245.825 349.363 240.975 349.114 237.159C348.572 228.826 348.448 220.441 350.204 212.077C351.249 207.096 350.897 201.807 351.023 196.653C351.172 190.551 351.295 184.442 351.172 178.341C351.083 173.99 350.704 169.63 350.167 165.309C350.005 164.002 348.885 162.814 348.203 161.571C347.28 162.602 346.044 163.487 345.486 164.688C342.761 170.556 340.112 176.464 337.634 182.441C334.076 191.021 331.109 199.873 327.117 208.241C322.677 217.547 319.779 227.275 317.17 237.159C316.753 238.739 319.219 242.542 314.422 241.044C312.112 240.323 312.848 244.762 309.234 243.364C301.515 240.377 292.922 239.669 286.434 233.631C285.053 232.345 282.898 231.918 281.163 230.978C271.958 225.994 262.315 221.575 254.505 214.509C249.709 210.169 243.963 208.223 238.344 205.789C236.779 205.111 234.906 205.59 235.96 207.925C240.754 218.544 245.373 229.264 250.7 239.615C255.604 249.144 261.332 258.25 266.697 267.542C269.457 272.323 269.433 272.314 267.122 278.219C266.653 279.443 266.313 280.712 266.108 282.007C265.624 284.977 265.802 288.178 264.74 290.908C261.187 300.039 257.71 309.112 256.054 318.877C255.214 323.83 252.854 328.526 250.894 334.41ZM168.084 276.578C159.23 277.963 153.5 283.048 148.984 289.853C148.008 291.325 138.476 297.257 136.59 298.072C134.693 298.892 133.014 300.213 131.122 301.05C127.709 302.561 124.137 305.151 120.761 304.962C116 304.696 114.007 305.884 113.505 310.421C113.439 311.011 112.134 311.464 111.402 311.981C111.399 311.343 111.432 310.703 111.386 310.068C111.283 308.624 110.803 307.111 111.091 305.756C111.584 303.432 111.502 300.584 115.137 300.302C130.048 299.146 140.983 291.074 150.515 280.223C156.229 273.719 163.967 270.577 172.553 270.985C184.255 271.541 195.627 271.311 206.144 265.169C207.255 264.52 209.193 265.287 210.747 265.396C209.991 266.639 209.518 268.268 208.433 269.065C199.166 275.87 188.301 276.495 177.381 276.756C174.463 276.826 171.54 276.737 168.084 276.578ZM135.387 338.528C146.717 331.986 157.437 325.955 167.986 319.636C172.84 316.729 177.934 315.5 183.515 315.129C191.175 314.618 198.862 313.698 205.358 308.972C207.753 307.23 209.881 305.124 212.215 303.291C212.734 302.883 213.607 302.927 214.317 302.763C214.198 303.472 214.118 304.19 213.956 304.889C212.197 312.493 205.767 315.155 199.58 317.03C192.924 319.048 185.794 319.487 178.884 320.694C176.971 321.028 174.795 321.179 173.274 322.206C166.715 326.632 159.033 329.123 153.286 335.128C150.578 337.956 145.457 338.325 141.775 340.417C138.786 342.115 134.825 342.779 133.403 346.793C133.269 347.172 131.089 346.937 129.91 346.715C129.733 346.682 129.815 345.147 129.818 344.307C129.829 341.05 132.544 340.233 135.387 338.528ZM171.553 366.615C164.014 375.763 156.397 383.317 144.874 385.803C141.958 386.432 139.438 388.837 136.684 390.329C136.135 390.626 135.348 390.485 134.671 390.546C134.874 389.789 134.886 388.512 135.309 388.357C139.122 386.96 139.988 382.527 145.023 381.318C152.09 379.621 158.911 374.924 163.483 368.556C169.505 360.168 178.025 356.664 187.699 355.608C192.3 355.106 196.808 355.394 201.385 353.6C203.5 352.77 205.043 352.702 206.585 350.49C208.075 348.354 211.174 347.238 213.722 345.992C214.78 345.474 216.241 345.779 217.519 345.71C217.118 347.086 217.086 348.758 216.257 349.792C209.853 357.786 200.609 359.886 191.205 360.531C184.286 361.006 178.058 362.652 171.553 366.615Z" fill="#AEFD00"/>
</svg>
