<svg width="333" height="206" viewBox="0 0 333 206" fill="none" xmlns="http://www.w3.org/2000/svg">
<path d="M141.576 185.727C136.87 192.567 135.942 200.895 139.6 205.583C139.823 205.869 142.663 204.998 143.015 204.142C144.867 199.638 146.235 194.937 147.952 190.373C148.324 189.383 149.438 188.674 150.21 187.836C150.842 189.166 152.174 190.63 151.953 191.799C151.543 193.97 150.193 195.955 149.291 198.041C142.262 214.29 132.201 228.881 124.002 244.488C122.648 247.066 121.903 249.979 120.453 252.491C119.032 254.952 120.254 260.832 113.702 257.856C112.826 257.459 109.337 262.992 106.965 265.697C104.409 268.612 101.745 271.431 99.1283 274.292C98.5372 270.46 97.6679 266.647 97.4066 262.793C96.5273 249.837 100.463 237.61 103.109 225.145C105.371 214.484 106.278 203.604 109.812 193.12C112.499 185.149 106.808 178.907 102.406 173.216C99.1552 169.013 94.225 166.121 90.0794 162.602C89.0124 161.696 87.6991 160.799 87.1609 159.601C85.418 155.718 77.8344 162.268 78.2541 154.282C78.4399 150.754 76.9477 147.15 76.311 143.563C75.3694 138.261 77.2726 136.192 82.3287 135.036C93.8983 132.389 105.6 133.288 117.27 132.919C122.611 132.75 128.361 132.62 133.101 130.566C136.616 129.043 140.493 124.794 141.247 121.145C143.221 111.6 147.963 103.452 152.189 95.0482C157.955 83.5859 161.54 71.4432 164.731 59.1247C165.062 57.8463 165.069 56.4433 165.606 55.2721C166.018 54.3742 167.029 53.7506 167.773 53.0054C168.166 53.8136 168.499 54.6579 168.96 55.4249C174.239 64.207 176.856 73.9089 179.7 83.6832C183.046 95.1829 188.006 106.217 192.412 117.394C192.875 118.567 194.326 119.348 195.319 120.312C195.246 118.863 194.985 117.393 195.152 115.974C195.314 114.6 195.899 113.272 196.333 111.936C196.533 111.32 196.817 110.732 197.063 110.13C197.519 110.785 198.226 111.382 198.392 112.104C199.863 118.535 201.099 125.024 202.754 131.405C203.107 132.767 204.879 133.76 205.996 134.923C206.283 133.636 207.114 132.17 206.76 131.093C205.14 126.149 209.913 126.396 211.934 125.032C215.382 122.705 219.815 121.843 223.264 119.518C226.413 117.395 225.113 120.516 225.898 120.924C227.823 121.925 230.415 122.801 232.393 122.317C238.065 120.931 243.513 118.645 249.162 117.139C251.13 116.615 254.135 116.559 255.385 117.699C256.708 118.906 257.048 121.832 256.882 123.934C256.003 135.159 249.218 142.815 241.43 150.236C227.601 163.412 214.193 177.047 204.161 193.565C203.394 194.828 201.533 195.529 200.057 196.23C198.582 196.93 195.925 200.652 196.265 195.008C196.362 193.397 195.733 191.743 195.436 190.108L192.458 191.344C193.644 189.062 188.446 187.741 191.832 184.557C193.636 182.86 193.472 179.056 194.116 176.185C194.131 176.12 192.876 175.552 192.739 175.702C190.486 178.163 187.055 179.831 187.849 184.225C188.906 190.069 185.327 196.939 191.959 201.599C192.63 202.07 192.696 204.924 192.014 205.556C188.172 209.107 190.5 213.502 190.074 217.449C189.079 226.66 189.436 235.362 200.722 238.464C204.739 239.568 200.796 241.402 200.569 241.425C198.444 241.642 195.993 242.199 194.194 241.399C189.216 239.184 188.249 239.372 187.943 244.377C187.73 247.878 188.025 251.409 187.848 254.914C187.766 256.521 187.411 258.292 186.589 259.623C185.986 260.602 184.424 260.989 183.289 261.64C182.721 260.597 181.888 259.616 181.629 258.501C180.135 252.076 178.742 245.625 177.403 239.166C177.126 237.833 177.675 236.158 177.058 235.1C175.18 231.877 172.918 228.878 170.806 225.792C165.676 229.094 173.771 232.044 170.53 235.808C168.95 237.119 167.854 237.854 166.899 238.743C166.774 238.86 167.384 239.767 167.653 240.308C168.575 239.548 169.563 238.853 170.389 238C170.774 237.603 170.844 236.9 171.056 236.336C174.578 242.835 175.408 249.893 175.246 257.126C175.176 260.224 174.386 263.633 179.532 262.858C179.769 262.822 180.678 264.735 180.618 265.699C180.383 269.402 180.022 273.111 179.407 276.768C179.179 278.123 178.12 279.339 177.44 280.618C176.092 279.641 173.621 278.713 173.576 277.681C173.255 270.177 168.761 264.144 166.873 257.243C162.302 240.533 157.877 223.783 153.391 207.049C152.968 205.471 152.288 203.913 152.184 202.315C152.102 201.067 152.728 199.772 153.039 198.498C154.235 198.914 155.681 199.038 156.579 199.805C158.699 201.617 159.775 204.745 160.837 198.698C161.949 192.371 161.962 186.787 161.207 180.314C160.29 172.46 155.944 164.506 160.117 155.634C162.413 150.753 160.44 143.897 160.618 137.938C160.647 136.98 161.867 136.058 162.536 135.119C163.271 135.993 164.708 136.935 164.63 137.73C163.907 145.156 165.167 152.487 163.154 160.159C161.494 166.487 164.358 174.027 165.332 181.014C165.649 183.284 166.355 185.498 166.835 187.748C167.113 189.046 167.295 190.365 167.521 191.675C168.263 190.481 169.235 189.368 169.693 188.073C170.345 186.225 171.252 184.136 170.943 182.34C169.828 175.856 167.826 169.504 167.03 162.995C166.654 159.91 168.739 156.601 168.859 153.362C169.237 143.212 167.35 133.369 165.025 123.468C163.854 118.479 163.767 112.761 166.742 107.513C170.771 100.407 171.276 92.8481 170.476 84.4533C169.886 78.2753 171.175 71.808 168.921 65.6394C168.668 64.946 168.006 64.4022 167.533 63.7892C167.304 64.3953 166.843 65.0196 166.887 65.6051C167.04 67.6094 167.291 69.6161 167.685 71.586C167.802 72.1703 168.979 72.976 168.884 73.1063C164.026 79.7844 168.038 87.4827 166.381 94.5387C164.868 100.979 163.765 107.522 162.664 114.051C161.773 119.332 162.5 125.382 160.126 129.811C155.427 138.575 156.429 147.61 156.385 156.683C156.361 161.565 155.963 166.091 152.3 169.766C151.378 170.692 150.072 171.942 150.109 173.004C150.368 180.494 145.929 186.032 142.103 192.053C141.576 190.296 141.576 188.539 142.103 186.255C144.607 179.529 146.564 173.326 148.568 167.136C150.629 160.764 152.779 154.409 152.073 147.553C152.011 146.951 151.505 146.394 151.206 145.817C150.804 146.248 150.199 146.613 150.03 147.123C147.877 153.603 146.396 160.39 143.515 166.52C140.51 172.913 142.209 179.344 141.576 185.727ZM190.008 123.521L188.057 123.367C188.707 123.77 189.358 124.173 190.008 125.63L191.96 125.785C191.309 125.382 190.659 124.978 190.008 123.521ZM224.753 147.771L224.599 149.725C225.001 149.074 225.403 148.422 226.859 147.771L227.013 145.817C226.611 146.468 226.208 147.12 224.753 147.771ZM181.585 134.065L181.01 131.38L179.634 131.802C180.284 132.907 180.935 134.013 181.585 136.173C181.585 141.34 181.536 146.507 181.64 151.672C181.655 152.431 182.4 153.176 182.807 153.927C183.051 153.684 183.526 153.416 183.503 153.201C182.873 147.173 185.866 140.752 181.585 134.065ZM176.321 168.858C180.887 165.602 180.711 160.6 178.715 156.817C174.991 149.76 175.567 142.457 175.198 135.057C174.809 127.258 173.891 119.484 173.098 111.709C173.048 111.226 171.761 110.364 171.573 110.487C170.709 111.047 169.355 111.932 169.393 112.634C169.817 120.379 169.245 128.465 171.343 135.766C174.491 146.722 171.74 158.127 174.215 168.858L174.061 170.812C174.463 170.16 174.865 169.509 176.321 168.858ZM119.466 183.619C119.817 186.281 120.964 189.134 120.382 191.575C117.788 202.461 116.167 213.413 116.275 224.618C116.29 226.28 115.826 227.943 115.659 229.613C115.154 234.676 114.617 239.739 114.285 244.815C114.242 245.464 115.338 246.189 115.907 246.879C116.742 246.105 118.156 245.434 118.315 244.541C119.076 240.241 118.735 235.598 120.207 231.602C122.928 224.216 125.066 216.737 127.231 209.196C128.874 203.475 128.238 199.394 126.194 194.247C124.446 189.848 119.7 185.166 124.595 179.625C125.155 178.991 124.152 175.594 123.357 175.377C119.999 174.462 120.81 177.262 120.437 179.21C120.142 180.752 119.115 182.154 117.36 183.619L116.518 186.992L117.894 187.301C118.067 186.074 118.24 184.846 119.466 183.619ZM247.916 137.228C248.656 135.784 249.82 134.399 250.032 132.881C250.313 130.87 250.534 127.424 249.579 126.933C246.642 125.419 245.198 127.48 244.005 130.439C241.61 136.383 237.794 141.393 233.113 145.947C228.798 150.144 225.393 155.282 221.597 160.014C220.44 161.456 219.318 162.926 218.179 164.383C217.212 162.683 216.178 161.017 215.305 159.27C214.876 158.411 214.746 157.403 214.481 156.462C213.491 157.282 212.15 157.919 211.609 158.969C211.033 160.088 210.856 161.676 211.128 162.923C212.345 168.5 209.17 171.799 205.733 175.496C202.893 178.551 201.057 182.584 199.067 186.338C198.8 186.841 200.194 188.291 200.957 189.184C201.036 189.277 202.227 188.697 202.618 188.203C216.456 170.753 230.702 153.667 247.916 137.228ZM152.105 102.435C151.403 106.333 150.423 110.207 150.065 114.138C149.547 119.827 151.005 125.075 144.513 129.792C138.957 133.83 141.794 142.511 141.671 149.212C141.655 150.125 142.927 151.062 143.603 151.989C144.331 151.115 145.566 150.317 145.71 149.356C147.357 138.33 156.608 129.328 154.281 117.231C154.206 116.84 155.513 116.302 155.603 115.74C156.608 109.502 157.572 103.254 158.359 96.9851C158.513 95.7597 157.859 94.4333 157.577 93.1537C156.455 94.2955 155.02 95.2702 154.297 96.6253C153.555 98.0165 153.508 99.7794 152.105 102.435ZM127.889 166.749C128.942 165.841 130.824 165.001 130.907 164.012C131.301 159.275 130.074 154.353 135.084 150.818C136.581 149.762 136.79 146.7 137.29 144.489C137.479 143.652 136.82 142.623 136.548 141.682C136.052 142.021 135.499 142.3 135.07 142.71C133.8 143.921 131.85 144.992 131.465 146.46C129.869 152.537 127.884 155.519 121.621 150.297C119.946 148.9 115.984 150.629 113.517 149.714C110.197 148.482 104.737 153.714 103.455 146.499C102.826 146.734 101.727 146.855 101.638 147.223C100.432 152.153 105.116 156.707 109.844 155.297C118.199 152.807 123.688 153.82 126.21 158.917C127.248 161.015 128.787 164.399 123.79 164.757C122.645 164.839 121.606 166.388 120.519 167.262C121.384 168.309 122.348 170.279 123.092 170.199C124.41 170.057 125.596 168.67 127.889 166.749ZM128.942 180.456C126.307 184.088 127.455 187.744 128.977 191.337C129.416 192.373 130.288 193.225 130.961 194.162C131.692 193.283 133.101 192.354 133.041 191.533C132.706 186.954 135.125 183.241 136.22 179.141C138.195 171.737 138.5 163.883 139.429 156.209C139.497 155.647 138.979 155.013 138.733 154.413C137.989 154.947 136.896 155.326 136.574 156.049C135.916 157.524 135.977 159.355 135.205 160.739C132.368 165.817 135.738 174.257 126.962 176.112C127.622 176.856 128.282 177.602 128.942 180.456ZM108.937 230.009C108.242 230.009 106.966 229.884 106.935 230.027C105.081 238.669 103.269 247.321 101.647 256.009C101.457 257.03 102.364 258.256 102.763 259.387C103.746 258.403 105.382 257.549 105.608 256.413C107.279 248.004 111.607 240.035 108.937 230.009ZM211.066 142.499L206.075 137.228C204.931 139.154 203.723 141.046 202.664 143.018C201.84 144.551 201.201 146.183 200.48 147.771C199.797 146.145 199.254 144.436 198.369 142.93C197.959 142.232 196.851 141.511 196.117 141.567C195.445 141.619 194.421 142.623 194.292 143.34C193.67 146.795 197.345 151.491 201.269 151.911C204.229 152.228 207.897 152.939 207.032 147.475C206.854 146.354 208.96 144.87 211.066 142.499ZM104.726 160.423L100.391 158.438C100.081 159.362 99.2163 160.73 99.5455 161.144C103.566 166.195 107.739 171.127 111.984 175.992C112.185 176.222 114.121 175.368 114.103 175.291C113.5 172.754 113.104 170.074 111.943 167.789C110.601 165.149 108.566 162.863 104.726 160.423ZM223.7 134.065L231.857 127.472C227.871 124.833 225.196 128.624 221.947 129.549C221.362 129.716 220.977 130.494 220.429 130.892C218.264 132.463 213.571 127.796 213.544 133.599C213.542 134.094 218.796 134.618 221.611 135.111C221.947 135.17 222.301 135.119 223.7 134.065ZM127.889 230.009C130.312 225.473 133.407 221.15 134.93 216.329C135.985 212.985 134.875 208.955 134.732 205.233C133.504 208.181 132.07 211.063 131.094 214.093C129.516 218.996 128.24 223.996 127.889 230.009ZM193.167 164.64C193.518 162.009 194.421 159.298 194.059 156.769C193.722 154.409 192.042 152.241 190.952 149.989C189.936 152.344 188.772 154.65 187.965 157.075C187.56 158.288 190.542 163.899 193.167 164.64ZM160.528 214.194L163.399 225.504C163.846 221.715 164.394 217.933 164.703 214.132C164.899 211.718 164.863 209.263 164.666 206.849C164.604 206.098 163.671 205.418 163.137 204.706C162.267 205.429 160.863 206.02 160.644 206.906C160.239 208.541 160.528 210.35 160.528 214.194ZM98.4081 139.337C96.7044 139.337 94.9228 139.015 93.3139 139.407C90.4454 140.105 86.5829 137.068 84.7208 141.603C87.6854 142.254 90.6649 143.447 93.6083 143.363C95.5857 143.308 97.512 141.445 98.4081 139.337ZM181.585 127.738C181.585 123.288 181.702 118.831 181.483 114.391C181.44 113.535 180.078 112.744 179.325 111.923C178.674 112.847 177.347 113.891 177.484 114.676C178.314 119.415 179.479 124.094 181.585 127.738ZM171.056 197.325L169.437 194.162C168.573 194.891 166.899 195.741 166.986 196.33C167.359 198.865 168.53 201.285 168.884 203.82C169.398 207.499 169.457 211.24 169.71 214.955C170.159 211.17 170.65 207.39 171.034 203.598C171.173 202.224 171.056 200.822 171.056 197.325ZM119.466 143.553C123.186 143.343 126.928 143.298 130.608 142.794C131.432 142.682 132.775 140.751 132.57 140.031C132.271 138.981 130.456 137.35 129.861 137.564C125.959 138.969 122.211 140.804 119.466 143.553ZM99.4613 155.152C99.4314 149.754 94.23 150.014 91.2848 147.88C90.4947 147.309 88.738 148.075 87.4247 148.227C88.2422 149.444 88.7972 151.078 89.9303 151.797C92.6099 153.498 95.5651 154.764 99.4613 155.152ZM179.479 197.325C179.479 199.049 179.424 200.775 179.509 202.495C179.539 203.104 179.91 203.697 180.125 204.297C180.612 204.081 181.46 203.949 181.53 203.639C182.319 200.157 183.039 196.656 183.573 193.13C183.607 192.903 181.428 191.893 181.165 192.151C180.369 192.935 180.009 194.162 179.479 197.325ZM217.383 144.608C219.401 144.257 221.682 144.374 223.365 143.427C225.173 142.409 227.984 139.704 227.643 138.927C226.078 135.354 224.681 141.434 222.22 139.552C221.674 139.135 219.05 141.445 217.383 144.608ZM200.537 167.804C200.776 168.043 200.984 168.342 201.268 168.502C201.442 168.601 201.882 168.577 201.952 168.459C202.927 166.833 204.018 165.249 204.752 163.515C205.407 161.966 205.656 160.243 206.084 158.598C204.441 159.351 202.351 159.727 201.291 160.977C200.411 162.015 200.743 164.083 200.537 167.804ZM187.902 174.129C187.239 172.059 186.652 169.957 185.83 167.951C185.703 167.643 184.491 167.782 183.781 167.713C184.782 170.212 180.89 174.727 187.902 174.129ZM187.902 129.847C187.902 130.546 187.631 131.424 187.952 131.911C189.051 133.582 190.359 135.115 191.587 136.701C191.45 134.806 191.523 132.861 191.085 131.039C190.875 130.17 189.696 129.534 187.902 129.847ZM176.321 221.574C179.009 219.904 179.682 217.904 177.382 215.363C176.86 214.785 176.447 214.109 175.983 213.478C175.745 215.476 175.5 217.473 175.273 219.472C175.234 219.818 175.268 220.171 176.321 221.574ZM109.99 207.868C109.99 208.559 109.906 209.263 110.01 209.938C110.157 210.892 110.443 211.825 110.67 212.767C111.146 212.522 112.054 212.223 112.031 212.039C111.655 208.999 111.162 205.973 110.696 202.944C110.461 203.537 110.185 204.118 110.007 204.728C109.913 205.046 109.99 205.414 109.99 207.868ZM108.937 215.249C108.586 217.814 108.133 220.37 107.941 222.947C107.877 223.814 108.474 224.73 108.77 225.624C109.176 224.55 109.832 223.499 109.936 222.396C110.126 220.381 109.99 218.336 108.937 215.249ZM176.321 179.401C176.081 180.567 175.362 181.921 175.725 182.85C176.165 183.979 177.519 184.751 178.478 185.676C178.812 184.457 179.361 183.246 179.406 182.017C179.437 181.158 178.778 180.274 176.321 179.401ZM186.85 238.444C186.84 237.038 186.854 235.63 186.733 234.234C186.728 234.175 184.866 234.175 184.86 234.234C184.739 235.63 184.754 237.038 186.85 238.444ZM173.162 98.2173L174.386 105.427C174.566 102.909 174.765 100.393 174.893 97.8731C174.905 97.6486 174.452 97.4004 173.162 98.2173ZM178.427 223.683C178.076 225.193 177.627 226.689 177.43 228.218C177.366 228.713 177.958 229.293 178.251 229.833C178.66 229.128 179.265 228.465 179.43 227.706C179.636 226.758 179.479 225.731 178.427 223.683ZM119.466 162.532L119.626 158.475L116.353 159.414L119.466 162.532ZM109.99 138.282C108.483 137.93 106.988 137.482 105.462 137.284C104.968 137.219 104.388 137.813 103.848 138.106C104.553 138.516 105.215 139.121 105.974 139.287C106.92 139.493 107.946 139.337 109.99 138.282ZM235.282 133.01L232.62 133.568C232.743 134.023 232.944 134.882 232.979 134.875C234.107 134.656 235.22 134.354 235.282 133.01ZM214.224 149.88L213.382 151.145C214.014 151.074 214.645 151.004 214.224 149.88ZM251.075 121.413L252.338 122.256C252.268 121.623 252.198 120.991 251.075 121.413Z" fill="#AEFD00"/>
<path d="M158.423 183.618C158.423 186.057 158.577 187.464 158.389 188.823C158.058 191.219 157.519 193.587 157.067 195.967C156.115 193.592 154.76 191.289 154.32 188.823C153.841 186.139 154.037 183.289 154.263 180.538C154.461 178.128 155.108 175.756 155.556 173.367C156.512 175.74 157.515 178.096 158.39 180.499C158.612 181.11 158.423 181.871 158.423 183.618ZM141.05 192.053C141.403 193.281 141.231 194.508 141.057 195.736L139.681 195.427C139.962 194.303 140.243 193.178 141.05 192.053ZM122.098 206.287C121.501 206.181 121.432 205.549 121.361 204.916C121.782 205.198 122.204 205.478 122.098 206.287Z" fill="#AEFD00"/>
</svg>
