<svg width="39" height="39" viewBox="0 0 39 39" fill="none" xmlns="http://www.w3.org/2000/svg">
<path d="M26.269 0.972363C27.6313 -0.427057 29.9859 0.755487 29.6768 2.68391L27.6263 15.4798C27.5233 16.1226 27.7396 16.7753 28.206 17.2294L37.4918 26.269C38.8913 27.6313 37.7087 29.9859 35.7803 29.6769L22.9843 27.6264C22.3416 27.5234 21.6889 27.7396 21.2348 28.2061L12.1952 37.4919C10.8329 38.8913 8.47828 37.7088 8.7873 35.7803L10.8378 22.9844C10.9408 22.3416 10.7246 21.6889 10.2581 21.2349L0.972312 12.1952C-0.427109 10.8329 0.755436 8.47833 2.68386 8.78735L15.4798 10.8379C16.1226 10.9409 16.7753 10.7246 17.2293 10.2582L26.269 0.972363Z" fill="#AEFD00"/>
</svg>
